<svg xmlns="http://www.w3.org/2000/svg" xmlns:xlink="http://www.w3.org/1999/xlink" contentStyleType="text/css" data-diagram-type="DESCRIPTION" height="1473px" preserveAspectRatio="none" style="width:1003px;height:1473px;background:#FFFFFF;" version="1.1" viewBox="0 0 1003 1473" width="1003px" zoomAndPan="magnify"><defs/><g><g class="legend" data-source-line="20"><rect fill="#DDDDDD" height="58.8906" rx="7.5" ry="7.5" style="stroke:#000000;stroke-width:1;" width="390.1875" x="12" y="12"/><text fill="#000000" font-family="sans-serif" font-size="14" font-weight="bold" lengthAdjust="spacing" textLength="57.9209" x="17" y="29.9951">Legend</text><text fill="#000000" font-family="sans-serif" font-size="14" lengthAdjust="spacing" textLength="150.1855" x="17" y="46.292">Researcher journey 2</text><text fill="#000000" font-family="sans-serif" font-size="14" lengthAdjust="spacing" text-decoration="underline" textLength="107.085" x="17" y="62.5889">Use Case Label</text><text fill="#000000" font-family="sans-serif" font-size="14" lengthAdjust="spacing" textLength="268.6523" x="128.5352" y="62.5889">= corresponds directly to a User Story</text></g><!--cluster Omics Research Data Infrastructure--><g class="cluster" data-entity="Omics Research Data Infrastructure" data-source-line="26" data-uid="ent0002" id="cluster_Omics Research Data Infrastructure"><path d="M208.9896,144.7787 C235.0314,112.4255 275.6185,108.8628 294.5511,152.7563 C319.4434,107.391 355.3478,106.1165 389.0035,142.6496 C414.7368,106.8643 453.3336,113.3872 472.2462,150.4441 C494.5079,98.9427 544.9041,100.0076 573.8903,143.2283 C597.53,97.9545 625.7049,99.4359 655.7229,136.9214 C687.6066,89.8906 731.3313,101.6329 754.0355,146.7184 C774.9641,113.0386 803.813,108.922 830.3144,140.1713 C865.4351,101.4179 894.7353,99.3345 925.89,144.6785 C935.7451,145.2013 938.4176,149.1255 933.8845,158.1725 C976.4127,184.1324 976.7934,216.1523 936.2745,244.4137 C983.8071,264.6566 975.4089,307.2102 939.0796,330.1953 C972.7684,357.2151 977.3412,391.9056 934.5227,414.8049 C988.7147,438.5898 992.5994,483.1373 945.0949,517.4017 C986.2633,540.6956 978.6416,570.0335 945.7124,593.9252 C988.155,625.3044 988.2452,656.4427 941.9773,684.1495 C982.2243,712.6944 993.8381,747.2836 944.0198,777.7928 C984.1038,804.5141 996.6864,841.5346 947.9663,871.9769 C981.4462,898.7045 978.536,938.5923 936.6957,955.1083 C976.0978,978.1529 979.0716,1006.8132 945.5105,1037.6497 C990.4173,1064.7646 986.9917,1104.1413 946.6867,1132.3149 C981.991,1160.5421 982.4957,1201.1044 933.5846,1216.1738 C978.1368,1238.4423 976.2347,1274.7319 941.9649,1304.4807 C984.6466,1343.3634 975.7912,1385.6827 918.89,1400.6785 C925.6056,1400.0045 930.1629,1403.7347 926.7556,1410.8719 C895.4886,1456.1802 860.3981,1451.1599 834.326,1405.5884 C809.6664,1452.8473 771.4265,1449.7251 744.8372,1407.5187 C729.896,1450.9944 691.7372,1456.9454 661.9486,1423.5226 C634.6993,1463.274 586.0742,1466.5676 563.8026,1417.9916 C529.989,1453.1881 497.6735,1458.4803 470.3725,1410.6618 C444.6659,1460.6816 415.6978,1461.735 379.6342,1421.019 C354.5884,1453.1708 321.9539,1458.4451 303.2644,1414.629 C262.9233,1466.7295 209.6544,1460.0233 191.52,1393.6785 C193.6057,1392.1082 195.4982,1392.4422 196.4762,1395.0063 C166.5176,1366.7402 161.1437,1340.4225 204.8485,1320.4257 C158.3006,1290.2768 155.3193,1252.9293 203.2639,1221.2703 C160.5726,1195.5911 149.8125,1160.0413 198.0381,1129.2018 C155.4636,1111.9854 144.3966,1072.7094 186.5342,1044.0486 C144.0799,1011.7456 144.386,984.4503 192.3649,958.2962 C154.6116,934.353 152.3745,898.1843 186.6424,869.5947 C142.7601,829.8709 141.5448,798.8251 198.1004,770.7431 C161.7105,754.1039 154.9756,718.0113 188.9735,693.0983 C138.6369,665.7061 139.347,622.9239 189.2846,595.8526 C147.9612,571.7647 149.9162,535.6432 192.891,515.3308 C144.1899,489.4206 149.031,441.7354 193.8942,416.7776 C158.8913,387.2256 152.1072,358.4427 198.9293,333.8593 C163.8621,307.1201 162.9853,271.0058 202.822,247.6488 C151.3413,218.8694 151.2769,170.3199 198.52,137.6785 C204.7708,134.9516 209.2477,137.9078 208.9896,144.7787" fill="none" style="stroke:#181818;stroke-width:1;"/><text fill="#000000" font-family="sans-serif" font-size="14" font-weight="bold" lengthAdjust="spacing" textLength="283.3428" x="417.0336" y="155.6737">Omics Research Data Infrastructure</text></g><!--cluster Trust & Identity--><g class="cluster" data-entity="Trust . Identity" data-source-line="30" data-uid="ent0003" id="cluster_Trust . Identity"><path d="M217.02,172.6785 L343.4253,172.6785 A3.75,3.75 0 0 1 345.9253,175.1785 L352.9253,194.9754 L552.56,194.9754 A2.5,2.5 0 0 1 555.06,197.4754 L555.06,391.1785 A2.5,2.5 0 0 1 552.56,393.6785 L217.02,393.6785 A2.5,2.5 0 0 1 214.52,391.1785 L214.52,175.1785 A2.5,2.5 0 0 1 217.02,172.6785" fill="none" style="stroke:#000000;stroke-width:1.5;"/><line style="stroke:#000000;stroke-width:1.5;" x1="214.52" x2="352.9253" y1="194.9754" y2="194.9754"/><text fill="#000000" font-family="sans-serif" font-size="14" font-weight="bold" lengthAdjust="spacing" textLength="125.4053" x="218.52" y="187.6737">Trust &amp; Identity</text></g><!--cluster Compute Environment--><g class="cluster" data-entity="Compute Environment" data-source-line="42" data-uid="ent0007" id="cluster_Compute Environment"><path d="M210.02,417.6785 L387.2368,417.6785 A3.75,3.75 0 0 1 389.7368,420.1785 L396.7368,439.9754 L559.56,439.9754 A2.5,2.5 0 0 1 562.06,442.4754 L562.06,791.1785 A2.5,2.5 0 0 1 559.56,793.6785 L210.02,793.6785 A2.5,2.5 0 0 1 207.52,791.1785 L207.52,420.1785 A2.5,2.5 0 0 1 210.02,417.6785" fill="none" style="stroke:#000000;stroke-width:1.5;"/><line style="stroke:#000000;stroke-width:1.5;" x1="207.52" x2="396.7368" y1="439.9754" y2="439.9754"/><text fill="#000000" font-family="sans-serif" font-size="14" font-weight="bold" lengthAdjust="spacing" textLength="176.2168" x="211.52" y="432.6737">Compute Environment</text></g><!--cluster Data Discovery and Exploration--><g class="cluster" data-entity="Data Discovery and Exploration" data-source-line="53" data-uid="ent0012" id="cluster_Data Discovery and Exploration"><path d="M241.16,817.6785 L491.2069,817.6785 A3.75,3.75 0 0 1 493.7069,820.1785 L500.7069,839.9754 L528.42,839.9754 A2.5,2.5 0 0 1 530.92,842.4754 L530.92,1081.1785 A2.5,2.5 0 0 1 528.42,1083.6785 L241.16,1083.6785 A2.5,2.5 0 0 1 238.66,1081.1785 L238.66,820.1785 A2.5,2.5 0 0 1 241.16,817.6785" fill="none" style="stroke:#000000;stroke-width:1.5;"/><line style="stroke:#000000;stroke-width:1.5;" x1="238.66" x2="500.7069" y1="839.9754" y2="839.9754"/><text fill="#000000" font-family="sans-serif" font-size="14" font-weight="bold" lengthAdjust="spacing" textLength="249.0469" x="242.66" y="832.6737">Data Discovery and Exploration</text></g><!--cluster Access Control--><g class="cluster" data-entity="Access Control" data-source-line="63" data-uid="ent0016" id="cluster_Access Control"><path d="M228.83,1107.6785 L346.1708,1107.6785 A3.75,3.75 0 0 1 348.6708,1110.1785 L355.6708,1129.9754 L907.39,1129.9754 A2.5,2.5 0 0 1 909.89,1132.4754 L909.89,1382.1785 A2.5,2.5 0 0 1 907.39,1384.6785 L228.83,1384.6785 A2.5,2.5 0 0 1 226.33,1382.1785 L226.33,1110.1785 A2.5,2.5 0 0 1 228.83,1107.6785" fill="none" style="stroke:#000000;stroke-width:1.5;"/><line style="stroke:#000000;stroke-width:1.5;" x1="226.33" x2="355.6708" y1="1129.9754" y2="1129.9754"/><text fill="#000000" font-family="sans-serif" font-size="14" font-weight="bold" lengthAdjust="spacing" textLength="116.3408" x="230.33" y="1122.6737">Access Control</text></g><!--entity UC_TI_auth--><g class="entity" data-entity="UC_TI_auth" data-source-line="32" data-uid="ent0004" id="entity_UC_TI_auth"><ellipse cx="384.7899" cy="233.6805" fill="#F0FFF0" rx="117.6599" ry="25.932" style="stroke:#181818;stroke-width:0.5;"/><text fill="#000000" font-family="sans-serif" font-size="14" lengthAdjust="spacing" textLength="214.3545" x="277.6126" y="238.329">Authenticate using credentials</text></g><!--entity UC_TI_fedid_login--><g class="entity" data-entity="UC_TI_fedid_login" data-source-line="33" data-uid="ent0005" id="entity_UC_TI_fedid_login"><ellipse cx="384.7906" cy="344.6826" fill="#F0FFF0" rx="154.2706" ry="33.2541" style="stroke:#181818;stroke-width:0.5;"/><text fill="#000000" font-family="sans-serif" font-size="14" lengthAdjust="spacing" textLength="291.3613" x="239.1099" y="349.3311">Login to services using federated identity</text></g><!--entity UC_CE_TRE_analysis--><g class="entity" data-entity="UC_CE_TRE_analysis" data-source-line="44" data-uid="ent0008" id="entity_UC_CE_TRE_analysis"><ellipse cx="384.7937" cy="471.6793" fill="#F0FFF0" rx="85.1037" ry="19.4207" style="stroke:#181818;stroke-width:0.5;"/><text fill="#000000" font-family="sans-serif" font-size="14" lengthAdjust="spacing" textLength="142.5635" x="313.5119" y="476.3277">Use TRE for analysis</text></g><!--entity UC_CE_GP--><g class="entity" data-entity="UC_CE_GP" data-source-line="45" data-uid="ent0009" id="entity_UC_CE_GP"><ellipse cx="384.7908" cy="560.6827" fill="#F0FFF0" rx="161.2708" ry="34.6542" style="stroke:#181818;stroke-width:0.5;"/><text fill="#000000" font-family="sans-serif" font-size="14" lengthAdjust="spacing" textLength="305.874" x="231.8538" y="565.3311">Use general-purpose compute environment</text></g><!--entity UC_CE_WF--><g class="entity" data-entity="UC_CE_WF" data-source-line="46" data-uid="ent0010" id="entity_UC_CE_WF"><ellipse cx="384.7931" cy="656.6812" fill="#F0FFF0" rx="119.5631" ry="26.3126" style="stroke:#181818;stroke-width:0.5;"/><text fill="#000000" font-family="sans-serif" font-size="14" lengthAdjust="spacing" textLength="218.4219" x="275.5822" y="661.3296">Use managed workflow service</text></g><!--entity UC_CE_omics_analysis--><g class="entity" data-entity="UC_CE_omics_analysis" data-source-line="47" data-uid="ent0011" id="entity_UC_CE_omics_analysis"><ellipse cx="384.7947" cy="747.6795" fill="#F0FFF0" rx="135.9047" ry="29.5809" style="stroke:#181818;stroke-width:0.5;"/><text fill="#000000" font-family="sans-serif" font-size="14" lengthAdjust="spacing" textLength="253.0117" x="258.2888" y="752.3279">Use custom omics analysis platform</text></g><!--entity UC_DDE_browse_catalog--><g class="entity" data-entity="UC_DDE_browse_catalog" data-source-line="55" data-uid="ent0013" id="entity_UC_DDE_browse_catalog"><ellipse cx="384.7925" cy="873.683" fill="#F0FFF0" rx="94.9225" ry="21.3845" style="stroke:#181818;stroke-width:0.5;"/><text fill="#000000" font-family="sans-serif" font-size="14" lengthAdjust="spacing" textLength="164.8008" x="302.3921" y="878.3315">Browse dataset catalog</text></g><!--entity UC_DDE_metadata--><g class="entity" data-entity="UC_DDE_metadata" data-source-line="56" data-uid="ent0014" id="entity_UC_DDE_metadata"><ellipse cx="384.7906" cy="958.6746" fill="#F0FFF0" rx="130.1306" ry="28.4261" style="stroke:#181818;stroke-width:0.5;"/><text fill="#000000" font-family="sans-serif" font-size="14" lengthAdjust="spacing" textLength="240.8506" x="264.3653" y="963.3231">Access metadata and descriptions</text></g><!--entity UC_DDE_explore_filter--><g class="entity" data-entity="UC_DDE_explore_filter" data-source-line="57" data-uid="ent0015" id="entity_UC_DDE_explore_filter"><ellipse cx="384.7913" cy="1044.6748" fill="#F0FFF0" rx="100.5813" ry="22.5163" style="stroke:#181818;stroke-width:0.5;"/><text fill="#000000" font-family="sans-serif" font-size="14" lengthAdjust="spacing" textLength="177.3379" x="296.1223" y="1049.3232">Explore and filter cohorts</text></g><!--entity UC_AC_request_data--><g class="entity" data-entity="UC_AC_request_data" data-source-line="65" data-uid="ent0017" id="entity_UC_AC_request_data"><ellipse cx="384.7898" cy="1163.6765" fill="#F0FFF0" rx="94.3898" ry="21.278" style="stroke:#181818;stroke-width:0.5;"/><text fill="#000000" font-family="sans-serif" font-size="14" lengthAdjust="spacing" textLength="163.6113" x="302.9841" y="1168.3249">Request access to data</text></g><!--entity UC_AC_request_TRE--><g class="entity" data-entity="UC_AC_request_TRE" data-source-line="66" data-uid="ent0018" id="entity_UC_AC_request_TRE"><ellipse cx="384.7867" cy="1245.6779" fill="#F0FFF0" rx="116.7467" ry="25.7493" style="stroke:#181818;stroke-width:0.5;"/><text fill="#000000" font-family="sans-serif" font-size="14" lengthAdjust="spacing" textLength="212.3994" x="278.587" y="1250.3263">Request access to data in TRE</text></g><!--entity UC_AC_request_compute--><g class="entity" data-entity="UC_AC_request_compute" data-source-line="67" data-uid="ent0019" id="entity_UC_AC_request_compute"><ellipse cx="384.7899" cy="1337.6805" fill="#F0FFF0" rx="142.4599" ry="30.892" style="stroke:#181818;stroke-width:0.5;"/><text fill="#000000" font-family="sans-serif" font-size="14" lengthAdjust="spacing" textLength="266.752" x="251.414" y="1342.329">Request access to compute resources</text></g><!--entity UC_AC_select_data--><g class="entity" data-entity="UC_AC_select_data" data-source-line="69" data-uid="ent0020" id="entity_UC_AC_select_data"><ellipse cx="783.4841" cy="1244.6754" fill="#F0FFF0" rx="82.0841" ry="18.8168" style="stroke:#181818;stroke-width:0.5;"/><text fill="#000000" font-family="sans-serif" font-size="14" lengthAdjust="spacing" textLength="135.5635" x="715.7023" y="1249.3238">Select desired data</text></g><!--entity UC_AC_complete_data_form--><g class="entity" data-entity="UC_AC_complete_data_form" data-source-line="70" data-uid="ent0021" id="entity_UC_AC_complete_data_form"><ellipse cx="783.4812" cy="1166.6808" fill="#F0FFF0" rx="110.4112" ry="24.4822" style="stroke:#181818;stroke-width:0.5;"/><text fill="#000000" font-family="sans-serif" font-size="14" lengthAdjust="spacing" textLength="198.7686" x="684.0969" y="1171.3292">Complete data request form</text></g><!--entity Researcher--><g class="entity" data-entity="Researcher" data-source-line="81" data-uid="ent0024" id="entity_Researcher"><ellipse cx="45.7612" cy="844.0285" fill="#F1F1F1" rx="8" ry="8" style="stroke:#181818;stroke-width:0.5;"/><path d="M45.7612,852.0285 L45.7612,879.0285 M32.7612,860.0285 L58.7612,860.0285 M45.7612,879.0285 L32.7612,894.0285 M45.7612,879.0285 L58.7612,894.0285" fill="none" style="stroke:#181818;stroke-width:0.5;"/><text fill="#000000" font-family="sans-serif" font-size="14" lengthAdjust="spacing" textLength="79.5225" x="6" y="908.5237">Researcher</text></g><!--link UC_TI_fedid_login to UC_TI_auth--><g class="link" data-entity-1="UC_TI_fedid_login" data-entity-2="UC_TI_auth" data-source-line="38" data-uid="lnk6" id="link_UC_TI_fedid_login_UC_TI_auth"><path d="M384.79,311.0785 C384.79,294.6085 384.79,281.0885 384.79,265.7685" fill="none" id="UC_TI_fedid_login-to-UC_TI_auth" style="stroke:#181818;stroke-width:1;stroke-dasharray:7,7;"/><polygon fill="#181818" points="384.79,259.7685,380.79,268.7685,384.79,264.7685,388.79,268.7685,384.79,259.7685" style="stroke:#181818;stroke-width:1;"/><text fill="#000000" font-family="sans-serif" font-size="13" lengthAdjust="spacing" textLength="61.1851" x="342.79" y="290.0854">&#171;extend&#187;</text></g><!--link UC_AC_request_data to UC_AC_select_data--><g class="link" data-entity-1="UC_AC_request_data" data-entity-2="UC_AC_select_data" data-source-line="74" data-uid="lnk22" id="link_UC_AC_request_data_UC_AC_select_data"><path d="M455.8,1177.9685 C530.98,1193.3285 643.3812,1216.2785 715.1012,1230.9185" fill="none" id="UC_AC_request_data-to-UC_AC_select_data" style="stroke:#181818;stroke-width:1;stroke-dasharray:7,7;"/><polygon fill="#181818" points="720.98,1232.1185,712.9619,1226.3993,716.081,1231.1185,711.3618,1234.2377,720.98,1232.1185" style="stroke:#181818;stroke-width:1;"/><text fill="#000000" font-family="sans-serif" font-size="13" lengthAdjust="spacing" textLength="63.0068" x="579.06" y="1200.7454">&#171;include&#187;</text></g><!--link UC_AC_request_data to UC_AC_complete_data_form--><g class="link" data-entity-1="UC_AC_request_data" data-entity-2="UC_AC_complete_data_form" data-source-line="75" data-uid="lnk23" id="link_UC_AC_request_data_UC_AC_complete_data_form"><path d="M479.55,1164.3885 C537.51,1164.8285 606.1502,1165.3431 666.8402,1165.8031" fill="none" id="UC_AC_request_data-to-UC_AC_complete_data_form" style="stroke:#181818;stroke-width:1;stroke-dasharray:7,7;"/><polygon fill="#181818" points="672.84,1165.8485,663.8706,1161.7804,667.8401,1165.8106,663.8099,1169.7802,672.84,1165.8485" style="stroke:#181818;stroke-width:1;"/><text fill="#000000" font-family="sans-serif" font-size="13" lengthAdjust="spacing" textLength="63.0068" x="579.06" y="1161.7454">&#171;include&#187;</text></g><!--link Researcher to UC_DDE_browse_catalog--><g class="link" data-entity-1="Researcher" data-entity-2="UC_DDE_browse_catalog" data-source-line="82" data-uid="lnk25" id="link_Researcher_UC_DDE_browse_catalog"><path d="M85.75,873.6785 C135.22,873.6785 216.19,873.6785 283.46,873.6785" fill="none" id="Researcher-to-UC_DDE_browse_catalog" style="stroke:#181818;stroke-width:1;"/><polygon fill="#181818" points="289.46,873.6785,280.46,869.6785,284.46,873.6785,280.46,877.6785,289.46,873.6785" style="stroke:#181818;stroke-width:1;"/><text fill="#000000" font-family="sans-serif" font-size="13" lengthAdjust="spacing" textLength="41.9453" x="121.02" y="869.7454">&#171;US1&#187;</text></g><!--link Researcher to UC_DDE_metadata--><g class="link" data-entity-1="Researcher" data-entity-2="UC_DDE_metadata" data-source-line="83" data-uid="lnk26" id="link_Researcher_UC_DDE_metadata"><path d="M85.76,888.7785 C95.41,892.2585 105.78,895.7785 115.52,898.6785 C170.99,915.1685 228.2234,928.2878 279.2834,938.8078" fill="none" id="Researcher-to-UC_DDE_metadata" style="stroke:#181818;stroke-width:1;"/><polygon fill="#181818" points="285.16,940.0185,277.1523,934.2847,280.2629,939.0096,275.538,942.1201,285.16,940.0185" style="stroke:#181818;stroke-width:1;"/><text fill="#000000" font-family="sans-serif" font-size="13" lengthAdjust="spacing" textLength="41.9453" x="121.02" y="894.7454">&#171;US2&#187;</text></g><!--link Researcher to UC_DDE_explore_filter--><g class="link" data-entity-1="Researcher" data-entity-2="UC_DDE_explore_filter" data-source-line="84" data-uid="lnk27" id="link_Researcher_UC_DDE_explore_filter"><path d="M73.96,912.0485 C97.39,942.0885 133.92,982.3885 175.52,1004.6785 C209.68,1022.9785 245.0246,1032.1202 281.7846,1037.5602" fill="none" id="Researcher-to-UC_DDE_explore_filter" style="stroke:#181818;stroke-width:1;"/><polygon fill="#181818" points="287.72,1038.4385,279.4025,1033.1641,282.7739,1037.7066,278.2314,1041.0779,287.72,1038.4385" style="stroke:#181818;stroke-width:1;"/></g><!--link Researcher to UC_TI_auth--><g class="link" data-entity-1="Researcher" data-entity-2="UC_TI_auth" data-source-line="85" data-uid="lnk28" id="link_Researcher_UC_TI_auth"><path d="M49.92,835.3785 C60.34,718.6085 97.48,370.4385 175.52,293.6785 C202.42,267.2285 234.3462,253.6488 270.3462,245.2688" fill="none" id="Researcher-to-UC_TI_auth" style="stroke:#181818;stroke-width:1;"/><polygon fill="#181818" points="276.19,243.9085,266.5175,242.0531,271.3202,245.0421,268.3312,249.8448,276.19,243.9085" style="stroke:#181818;stroke-width:1;"/><text fill="#000000" font-family="sans-serif" font-size="13" lengthAdjust="spacing" textLength="41.9453" x="121.02" y="302.7454">&#171;US3&#187;</text></g><!--link Researcher to UC_AC_request_data--><g class="link" data-entity-1="Researcher" data-entity-2="UC_AC_request_data" data-source-line="86" data-uid="lnk29" id="link_Researcher_UC_AC_request_data"><path d="M59.5,912.0085 C71.2,944.0785 90.51,990.1585 115.52,1025.6785 C136.88,1055.9985 144.25,1063.7385 175.52,1083.6785 C221.41,1112.9385 273.9219,1132.4251 317.1519,1145.6351" fill="none" id="Researcher-to-UC_AC_request_data" style="stroke:#181818;stroke-width:1;"/><polygon fill="#181818" points="322.89,1147.3885,315.4518,1140.933,318.1083,1145.9274,313.1139,1148.5838,322.89,1147.3885" style="stroke:#181818;stroke-width:1;"/><text fill="#000000" font-family="sans-serif" font-size="13" lengthAdjust="spacing" textLength="41.9453" x="121.02" y="1021.7454">&#171;US3&#187;</text></g><!--link Researcher to UC_AC_request_TRE--><g class="link" data-entity-1="Researcher" data-entity-2="UC_AC_request_TRE" data-source-line="87" data-uid="lnk30" id="link_Researcher_UC_AC_request_TRE"><path d="M48.82,912.0685 C54.93,983.2585 79.19,1134.6685 175.52,1202.6785 C203.27,1222.2685 232.0708,1232.2336 265.1508,1238.3736" fill="none" id="Researcher-to-UC_AC_request_TRE" style="stroke:#181818;stroke-width:1;"/><polygon fill="#181818" points="271.05,1239.4685,262.9311,1233.8933,266.134,1238.5561,261.4712,1241.7589,271.05,1239.4685" style="stroke:#181818;stroke-width:1;"/><text fill="#000000" font-family="sans-serif" font-size="13" lengthAdjust="spacing" textLength="41.9453" x="121.02" y="1137.7454">&#171;US4&#187;</text></g><!--link Researcher to UC_AC_request_compute--><g class="link" data-entity-1="Researcher" data-entity-2="UC_AC_request_compute" data-source-line="88" data-uid="lnk31" id="link_Researcher_UC_AC_request_compute"><path d="M48.34,912.1485 C52.33,977.7085 66.37,1113.9585 115.52,1216.6785 C133.5,1254.2485 140.09,1266.7785 175.52,1288.6785 C200.96,1304.3985 225.1665,1313.6341 254.3965,1320.8841" fill="none" id="Researcher-to-UC_AC_request_compute" style="stroke:#181818;stroke-width:1;"/><polygon fill="#181818" points="260.22,1322.3285,252.4476,1316.2795,255.367,1321.1248,250.5217,1324.0443,260.22,1322.3285" style="stroke:#181818;stroke-width:1;"/><text fill="#000000" font-family="sans-serif" font-size="13" lengthAdjust="spacing" textLength="41.9453" x="121.02" y="1212.7454">&#171;US5&#187;</text></g><!--link Researcher to UC_CE_TRE_analysis--><g class="link" data-entity-1="Researcher" data-entity-2="UC_CE_TRE_analysis" data-source-line="89" data-uid="lnk32" id="link_Researcher_UC_CE_TRE_analysis"><path d="M46.43,835.3085 C48.12,757.0585 64.65,580.3885 175.52,508.6785 C211.91,485.1485 253.0242,475.9867 293.2242,472.3667" fill="none" id="Researcher-to-UC_CE_TRE_analysis" style="stroke:#181818;stroke-width:1;"/><polygon fill="#181818" points="299.2,471.8285,289.8775,468.6518,294.2201,472.277,290.595,476.6196,299.2,471.8285" style="stroke:#181818;stroke-width:1;"/><text fill="#000000" font-family="sans-serif" font-size="13" lengthAdjust="spacing" textLength="41.9453" x="121.02" y="510.7454">&#171;US7&#187;</text></g><!--link Researcher to UC_CE_GP--><g class="link" data-entity-1="Researcher" data-entity-2="UC_CE_GP" data-source-line="90" data-uid="lnk33" id="link_Researcher_UC_CE_GP"><path d="M52.72,835.4385 C64.34,775.6185 96.22,661.6785 175.52,612.6785 C198.59,598.4285 219.5876,589.7154 246.1076,582.1954" fill="none" id="Researcher-to-UC_CE_GP" style="stroke:#181818;stroke-width:1;"/><polygon fill="#181818" points="251.88,580.5585,242.1302,579.1655,247.0697,581.9226,244.3126,586.8621,251.88,580.5585" style="stroke:#181818;stroke-width:1;"/><text fill="#000000" font-family="sans-serif" font-size="13" lengthAdjust="spacing" textLength="41.9453" x="121.02" y="617.7454">&#171;US8&#187;</text></g><!--link Researcher to UC_CE_WF--><g class="link" data-entity-1="Researcher" data-entity-2="UC_CE_WF" data-source-line="91" data-uid="lnk34" id="link_Researcher_UC_CE_WF"><path d="M64.85,835.1685 C85.75,795.0985 123.97,733.6885 175.52,700.6785 C203.92,682.4885 232.6504,672.8245 265.4404,666.4445" fill="none" id="Researcher-to-UC_CE_WF" style="stroke:#181818;stroke-width:1;"/><polygon fill="#181818" points="271.33,665.2985,261.7317,663.0911,266.422,666.2535,263.2596,670.9438,271.33,665.2985" style="stroke:#181818;stroke-width:1;"/><text fill="#000000" font-family="sans-serif" font-size="13" lengthAdjust="spacing" textLength="41.9453" x="121.02" y="703.7454">&#171;US9&#187;</text></g><!--link Researcher to UC_CE_omics_analysis--><g class="link" data-entity-1="Researcher" data-entity-2="UC_CE_omics_analysis" data-source-line="92" data-uid="lnk35" id="link_Researcher_UC_CE_omics_analysis"><path d="M85.75,859.0985 C141.72,838.1785 240.0698,801.4093 309.1998,775.5693" fill="none" id="Researcher-to-UC_CE_omics_analysis" style="stroke:#181818;stroke-width:1;"/><polygon fill="#181818" points="314.82,773.4685,304.9892,772.8729,310.1365,775.2192,307.7902,780.3665,314.82,773.4685" style="stroke:#181818;stroke-width:1;"/><text fill="#000000" font-family="sans-serif" font-size="13" lengthAdjust="spacing" textLength="50.2163" x="116.52" y="825.7454">&#171;US10&#187;</text></g><!--SRC=[jLNVRzis47xdNt7mG_CoprssOMlg2MXjDmiGO44Ieuy2GvrjBhIe7IadHh7_VKTISYJ7ReisCsmO8h_lVdvt6fs8ZJIwa1xFG2floO4a16aCL8GEI_y3A4k4ofijb7AD1SYIVqPBXqM7NKbrBvVupVpQeUAZb-4RUOV6CFP1-rMu8d2Sd0xN_AqgiXLfvlKDT51D48HD66nBbm4pZ5wEbCqvguBPnh5VOHjze4AYdeo440ON7hm5qikLXq87ZBQb46FdjmOpqUG3dmJ0UwxjETcwB2RMM88_ROdRAJwy3NUM2gHqFfN4ECHI_2l6eyOGkreYbypR2e9NCRxBBkFHU7INYMjEJv9QSV9_svhOC9oASPtDsVSa170PQZaUrHdyaP9nbIqBryJCNU4i9Cn3zMwu4bl1bfDB8PInTG63lzPQEMWzSPXUmaMv8EayrShNX0FEKvmCl_iZHAD36DnIxJoyWek2swVzDhfegpfuLtDp-5nnjxWtkbo28enGQTmWo6G-oMylSid09zgbNR8CE6DETwCLAoLn5qobs7YzSxSpmPUwo4sWYfETgIko6mPp7Pso6wHjQnD64B7yR328gsEgIgHyHnBSQl7C3VoOTSA7CnYFyT5pIxBifSiyiUkgvXhEoeqcMwuv-twbWv1khsUmO87AKfgjqxlwJcOvN-NjSP_44kAQcc5LKsN3z3IUiEjfP-VygizUiz5b64HBzmjZ7zhgTYWVF_GfYWLZrs2ZMjkOe3BIS-ph3Z4Ydg8EBNZPeiO9cUw44JRUxB7Y4PTXIVJh-vxi0__pCk97ppl6IzP06-rqEill8Y9lRZepe5Z03jRePM17DmKwHReARbpNHWjwOgU0CB8MsdYUVsLNbdoFXmcL9yJ_KAecYOajFLdJByqr_bCZBm6PC3os8OKsl7UJd18WxsTsc1RsFulr09jFFqTkTSkRanSidnumqM0wiT_4uG_zu3rRx0UULiDUt64K3Vga1MXCGrUxp5GDA7BpSDckaBrwm30jaRwtk4jqgKnT82-JpzAUkzfZlvWQuZiOdbvbtRVQS9WT7eGOpFpcfomx0jyDHWAU7WNkYVmvgBk8vpS_7pIqNyUln8RLcg2_V0dQ2Z71Vpq8tzl83VQtOzZpgmRn-p74nmyDuiqnH7-RjbrvdMN_0G00]--></g></svg>