<svg xmlns="http://www.w3.org/2000/svg" xmlns:xlink="http://www.w3.org/1999/xlink" contentStyleType="text/css" data-diagram-type="DESCRIPTION" height="957px" preserveAspectRatio="none" style="width:951px;height:957px;background:#FFFFFF;" version="1.1" viewBox="0 0 951 957" width="951px" zoomAndPan="magnify"><defs/><g><g class="legend" data-source-line="19"><rect fill="#DDDDDD" height="58.8906" rx="7.5" ry="7.5" style="stroke:#000000;stroke-width:1;" width="390.1875" x="12" y="12"/><text fill="#000000" font-family="sans-serif" font-size="14" font-weight="bold" lengthAdjust="spacing" textLength="57.9209" x="17" y="29.9951">Legend</text><text fill="#000000" font-family="sans-serif" font-size="14" lengthAdjust="spacing" textLength="150.1855" x="17" y="46.292">Researcher journey 1</text><text fill="#000000" font-family="sans-serif" font-size="14" lengthAdjust="spacing" text-decoration="underline" textLength="107.085" x="17" y="62.5889">Use Case Label</text><text fill="#000000" font-family="sans-serif" font-size="14" lengthAdjust="spacing" textLength="268.6523" x="128.5352" y="62.5889">= corresponds directly to a User Story</text></g><!--cluster Omics Research Data Infrastructure--><g class="cluster" data-entity="Omics Research Data Infrastructure" data-source-line="25" data-uid="ent0002" id="cluster_Omics Research Data Infrastructure"><path d="M199.2052,120.8331 C211.6394,98.7171 232.3074,99.6134 245.2262,120.3123 C262.2792,98.6302 281.9381,104.5994 293.2184,126.6476 C306.7719,103.7097 323.3128,102.123 342.4358,119.9181 C359.4033,93.9992 377.6169,97.1086 395.1677,119.2784 C410.8164,92.7232 431.6259,93.4492 448.3635,118.1483 C462.4893,93.9349 483.7055,96.1688 498.4,117.5237 C516.374,90.7332 539.1968,92.6343 551.7724,122.6003 C567.8364,95.0022 585.3633,101.7359 601.8514,122.1579 C612.5105,101.1459 629.4277,94.9539 646.7137,114.8992 C664.6511,94.0725 681.1172,98.3069 695.2779,119.2863 C708.443,90.2846 733.0524,89.8906 748.82,116.7938 C764.943,97.0701 783.4173,94.3774 798.7559,117.7036 C813.6726,99.677 838.1416,97.3749 847.3823,123.8989 C865.9959,96.5222 886.6556,101.9053 902.89,126.4428 C906.663,125.8239 909.2822,128.5487 908.1925,132.3183 C936.3729,151.031 937.4608,175.3982 904.7822,190.5465 C929.5215,202.5378 932.8747,227.4629 909.9719,244.0732 C934.0765,259.1344 937.2748,274.9075 913.9967,293.8036 C939.8236,314.6877 941.9654,334.3235 910.9145,352.2059 C942.712,366.3518 941.8508,391.1389 915.2709,409.7076 C938.1641,426.2864 941.657,445.3035 914.3124,460.9424 C940.5426,477.3079 944.453,506.6308 911.7253,520.4323 C938.9794,535.1868 938.2514,556.9228 913.4589,573.3812 C940.0306,591.034 943.9517,610.269 913.9241,628.4005 C935.8967,644.7089 937.8179,667.3079 911.7561,681.6611 C935.0437,699.3893 938.1614,723.0866 907.6595,736.8199 C937.7796,749.8701 937.8472,779.694 911.7007,796.551 C939.935,814.2549 939.329,834.4312 913.41,853.7533 C934.9879,878.4988 923.3144,898.6878 895.89,907.4428 C899.7032,909.0853 901.0474,911.9988 897.6744,915.2779 C884.0499,936.703 866.7468,939.0723 852.9858,915.4132 C838.2231,939.9443 816.5459,940.4281 801.2744,915.9501 C785.3295,939.6809 764.0302,938.5108 749.0848,914.8494 C737.1199,941.1309 715.0159,945.525 697.7789,920.0785 C682.9968,939.5733 669.2176,942.2457 653.6182,920.9637 C636.6912,950.1287 612.6458,948.0416 595.486,921.2055 C579.0049,936.592 562.4663,937.5432 551.8366,914.5506 C535.5143,937.3536 518.8466,942.8523 499.3686,918.027 C483.6879,937.6815 458.753,940.0654 447.3533,913.2366 C431.1839,938.3497 411.4512,935.5658 394.0502,914.6633 C379.7106,933.9041 361.2954,933.5552 349.2128,912.1722 C332.3711,937.9075 314.8531,945.7908 292.1979,918.4127 C276.8745,944.2384 252.7679,939.5053 242.7277,913.3816 C218.0233,938.1834 194.3347,935.6209 182.52,900.4428 C182.7336,900.1802 183.0056,900.2324 183.1237,900.5435 C163.1282,888.2975 159.1241,867.6509 181.6308,854.0406 C159.6597,838.5275 158.4262,812.1279 185.1442,799.7666 C158.5785,778.5959 157.1358,757.2834 187.7652,738.562 C155.9499,725.5145 156.1434,705.7784 179.4235,684.2663 C153.6703,666.7185 151.3355,639.9092 182.2794,625.098 C151.0769,609.9072 154.1141,588.9065 177.3301,568.9212 C155.3826,552.3328 158.4086,529.5315 180.6892,515.7365 C155.1732,501.7549 156.5626,483.5728 179.2521,468.1359 C152.3009,450.6505 154.7835,430.9597 177.8395,412.2112 C148.4287,392.7811 152.3974,364.5789 182.908,350.0333 C160.9848,336.3408 156.8896,317.224 181.5812,302.2375 C151.2492,282.2424 148.1847,263.9683 179.6766,242.0178 C151.3543,220.3502 161.353,198.3558 188.5857,185.4356 C153.963,164.3236 161.9262,139.674 189.52,119.4428 C193.0596,115.4371 196.9311,116.0228 199.2052,120.8331" fill="none" style="stroke:#181818;stroke-width:1;"/><text fill="#000000" font-family="sans-serif" font-size="14" font-weight="bold" lengthAdjust="spacing" textLength="283.3428" x="401.0336" y="137.438">Omics Research Data Infrastructure</text></g><!--cluster Trust & Identity--><g class="cluster" data-entity="Trust . Identity" data-source-line="29" data-uid="ent0003" id="cluster_Trust . Identity"><path d="M201.02,154.4428 L327.4253,154.4428 A3.75,3.75 0 0 1 329.9253,156.9428 L336.9253,176.7397 L536.56,176.7397 A2.5,2.5 0 0 1 539.06,179.2397 L539.06,372.9428 A2.5,2.5 0 0 1 536.56,375.4428 L201.02,375.4428 A2.5,2.5 0 0 1 198.52,372.9428 L198.52,156.9428 A2.5,2.5 0 0 1 201.02,154.4428" fill="none" style="stroke:#000000;stroke-width:1.5;"/><line style="stroke:#000000;stroke-width:1.5;" x1="198.52" x2="336.9253" y1="176.7397" y2="176.7397"/><text fill="#000000" font-family="sans-serif" font-size="14" font-weight="bold" lengthAdjust="spacing" textLength="125.4053" x="202.52" y="169.438">Trust &amp; Identity</text></g><!--cluster Data Repository--><g class="cluster" data-entity="Data Repository" data-source-line="40" data-uid="ent0007" id="cluster_Data Repository"><path d="M210.76,399.4428 L339.2297,399.4428 A3.75,3.75 0 0 1 341.7297,401.9428 L348.7297,421.7397 L526.82,421.7397 A2.5,2.5 0 0 1 529.32,424.2397 L529.32,587.9428 A2.5,2.5 0 0 1 526.82,590.4428 L210.76,590.4428 A2.5,2.5 0 0 1 208.26,587.9428 L208.26,401.9428 A2.5,2.5 0 0 1 210.76,399.4428" fill="none" style="stroke:#000000;stroke-width:1.5;"/><line style="stroke:#000000;stroke-width:1.5;" x1="208.26" x2="348.7297" y1="421.7397" y2="421.7397"/><text fill="#000000" font-family="sans-serif" font-size="14" font-weight="bold" lengthAdjust="spacing" textLength="127.4697" x="212.26" y="414.438">Data Repository</text></g><!--cluster Access Control--><g class="cluster" data-entity="Access Control" data-source-line="49" data-uid="ent0010" id="cluster_Access Control"><path d="M212.83,614.4428 L330.1708,614.4428 A3.75,3.75 0 0 1 332.6708,616.9428 L339.6708,636.7397 L884.39,636.7397 A2.5,2.5 0 0 1 886.89,639.2397 L886.89,888.9428 A2.5,2.5 0 0 1 884.39,891.4428 L212.83,891.4428 A2.5,2.5 0 0 1 210.33,888.9428 L210.33,616.9428 A2.5,2.5 0 0 1 212.83,614.4428" fill="none" style="stroke:#000000;stroke-width:1.5;"/><line style="stroke:#000000;stroke-width:1.5;" x1="210.33" x2="339.6708" y1="636.7397" y2="636.7397"/><text fill="#000000" font-family="sans-serif" font-size="14" font-weight="bold" lengthAdjust="spacing" textLength="116.3408" x="214.33" y="629.438">Access Control</text></g><!--entity UC_TI_auth--><g class="entity" data-entity="UC_TI_auth" data-source-line="31" data-uid="ent0004" id="entity_UC_TI_auth"><ellipse cx="368.7899" cy="215.4448" fill="#F0FFF0" rx="117.6599" ry="25.932" style="stroke:#181818;stroke-width:0.5;"/><text fill="#000000" font-family="sans-serif" font-size="14" lengthAdjust="spacing" textLength="214.3545" x="261.6126" y="220.0933">Authenticate using credentials</text></g><!--entity UC_TI_fedid_login--><g class="entity" data-entity="UC_TI_fedid_login" data-source-line="32" data-uid="ent0005" id="entity_UC_TI_fedid_login"><ellipse cx="368.7906" cy="326.447" fill="#F0FFF0" rx="154.2706" ry="33.2541" style="stroke:#181818;stroke-width:0.5;"/><text fill="#000000" font-family="sans-serif" font-size="14" lengthAdjust="spacing" textLength="291.3613" x="223.1099" y="331.0954">Login to services using federated identity</text></g><!--entity UC_DR_browse_catalog--><g class="entity" data-entity="UC_DR_browse_catalog" data-source-line="42" data-uid="ent0008" id="entity_UC_DR_browse_catalog"><ellipse cx="368.7925" cy="455.4474" fill="#F0FFF0" rx="94.9225" ry="21.3845" style="stroke:#181818;stroke-width:0.5;"/><text fill="#000000" font-family="sans-serif" font-size="14" lengthAdjust="spacing" textLength="164.8008" x="286.3921" y="460.0958">Browse dataset catalog</text></g><!--entity UC_DR_retrieve--><g class="entity" data-entity="UC_DR_retrieve" data-source-line="43" data-uid="ent0009" id="entity_UC_DR_retrieve"><ellipse cx="368.7905" cy="543.439" fill="#F0FFF0" rx="144.5305" ry="31.3061" style="stroke:#181818;stroke-width:0.5;"/><text fill="#000000" font-family="sans-serif" font-size="14" lengthAdjust="spacing" textLength="271.0791" x="233.251" y="548.0874">Fetch dataset to external environment</text></g><!--entity UC_AC_request_data--><g class="entity" data-entity="UC_AC_request_data" data-source-line="51" data-uid="ent0011" id="entity_UC_AC_request_data"><ellipse cx="368.7898" cy="670.4408" fill="#F0FFF0" rx="94.3898" ry="21.278" style="stroke:#181818;stroke-width:0.5;"/><text fill="#000000" font-family="sans-serif" font-size="14" lengthAdjust="spacing" textLength="163.6113" x="286.9841" y="675.0892">Request access to data</text></g><!--entity UC_AC_request_TRE--><g class="entity" data-entity="UC_AC_request_TRE" data-source-line="52" data-uid="ent0012" id="entity_UC_AC_request_TRE"><ellipse cx="368.7867" cy="752.4422" fill="#F0FFF0" rx="116.7467" ry="25.7493" style="stroke:#181818;stroke-width:0.5;"/><text fill="#000000" font-family="sans-serif" font-size="14" lengthAdjust="spacing" textLength="212.3994" x="262.587" y="757.0906">Request access to data in TRE</text></g><!--entity UC_AC_request_compute--><g class="entity" data-entity="UC_AC_request_compute" data-source-line="53" data-uid="ent0013" id="entity_UC_AC_request_compute"><ellipse cx="368.7899" cy="844.4448" fill="#F0FFF0" rx="142.4599" ry="30.892" style="stroke:#181818;stroke-width:0.5;"/><text fill="#000000" font-family="sans-serif" font-size="14" lengthAdjust="spacing" textLength="266.752" x="235.414" y="849.0933">Request access to compute resources</text></g><!--entity UC_AC_select_data--><g class="entity" data-entity="UC_AC_select_data" data-source-line="55" data-uid="ent0014" id="entity_UC_AC_select_data"><ellipse cx="760.4741" cy="751.4397" fill="#F0FFF0" rx="82.0841" ry="18.8168" style="stroke:#181818;stroke-width:0.5;"/><text fill="#000000" font-family="sans-serif" font-size="14" lengthAdjust="spacing" textLength="135.5635" x="692.6923" y="756.0881">Select desired data</text></g><!--entity UC_AC_complete_data_form--><g class="entity" data-entity="UC_AC_complete_data_form" data-source-line="56" data-uid="ent0015" id="entity_UC_AC_complete_data_form"><ellipse cx="760.4712" cy="673.4451" fill="#F0FFF0" rx="110.4112" ry="24.4822" style="stroke:#181818;stroke-width:0.5;"/><text fill="#000000" font-family="sans-serif" font-size="14" lengthAdjust="spacing" textLength="198.7686" x="661.0869" y="678.0935">Complete data request form</text></g><!--entity Researcher--><g class="entity" data-entity="Researcher" data-source-line="67" data-uid="ent0018" id="entity_Researcher"><ellipse cx="45.7612" cy="596.7928" fill="#F1F1F1" rx="8" ry="8" style="stroke:#181818;stroke-width:0.5;"/><path d="M45.7612,604.7928 L45.7612,631.7928 M32.7612,612.7928 L58.7612,612.7928 M45.7612,631.7928 L32.7612,646.7928 M45.7612,631.7928 L58.7612,646.7928" fill="none" style="stroke:#181818;stroke-width:0.5;"/><text fill="#000000" font-family="sans-serif" font-size="14" lengthAdjust="spacing" textLength="79.5225" x="6" y="661.288">Researcher</text></g><!--link UC_TI_fedid_login to UC_TI_auth--><g class="link" data-entity-1="UC_TI_fedid_login" data-entity-2="UC_TI_auth" data-source-line="36" data-uid="lnk6" id="link_UC_TI_fedid_login_UC_TI_auth"><path d="M368.79,292.8428 C368.79,276.3728 368.79,262.8528 368.79,247.5328" fill="none" id="UC_TI_fedid_login-to-UC_TI_auth" style="stroke:#181818;stroke-width:1;stroke-dasharray:7,7;"/><polygon fill="#181818" points="368.79,241.5328,364.79,250.5328,368.79,246.5328,372.79,250.5328,368.79,241.5328" style="stroke:#181818;stroke-width:1;"/><text fill="#000000" font-family="sans-serif" font-size="13" lengthAdjust="spacing" textLength="61.1851" x="326.79" y="271.8497">&#171;extend&#187;</text></g><!--link UC_AC_request_data to UC_AC_select_data--><g class="link" data-entity-1="UC_AC_request_data" data-entity-2="UC_AC_select_data" data-source-line="60" data-uid="lnk16" id="link_UC_AC_request_data_UC_AC_select_data"><path d="M439.46,684.9228 C513.13,700.2328 622.3156,722.9316 692.5456,737.5316" fill="none" id="UC_AC_request_data-to-UC_AC_select_data" style="stroke:#181818;stroke-width:1;stroke-dasharray:7,7;"/><polygon fill="#181818" points="698.42,738.7528,690.4225,733.0047,693.5247,737.7352,688.7942,740.8373,698.42,738.7528" style="stroke:#181818;stroke-width:1;"/><text fill="#000000" font-family="sans-serif" font-size="13" lengthAdjust="spacing" textLength="63.0068" x="556.06" y="707.5097">&#171;include&#187;</text></g><!--link UC_AC_request_data to UC_AC_complete_data_form--><g class="link" data-entity-1="UC_AC_request_data" data-entity-2="UC_AC_complete_data_form" data-source-line="61" data-uid="lnk17" id="link_UC_AC_request_data_UC_AC_complete_data_form"><path d="M463.63,671.1628 C519.7,671.5928 585.2102,672.0958 643.8702,672.5558" fill="none" id="UC_AC_request_data-to-UC_AC_complete_data_form" style="stroke:#181818;stroke-width:1;stroke-dasharray:7,7;"/><polygon fill="#181818" points="649.87,672.6028,640.9016,668.5324,644.8702,672.5636,640.8389,676.5322,649.87,672.6028" style="stroke:#181818;stroke-width:1;"/><text fill="#000000" font-family="sans-serif" font-size="13" lengthAdjust="spacing" textLength="63.0068" x="556.06" y="668.5097">&#171;include&#187;</text></g><!--link Researcher to UC_DR_browse_catalog--><g class="link" data-entity-1="Researcher" data-entity-2="UC_DR_browse_catalog" data-source-line="68" data-uid="lnk19" id="link_Researcher_UC_DR_browse_catalog"><path d="M71.2,588.0828 C92.59,557.7928 126.48,516.9828 166.52,494.4428 C199.71,475.7628 234.3809,466.7353 270.4009,461.5653" fill="none" id="Researcher-to-UC_DR_browse_catalog" style="stroke:#181818;stroke-width:1;"/><polygon fill="#181818" points="276.34,460.7128,266.863,458.0321,271.3907,461.4232,267.9996,465.9509,276.34,460.7128" style="stroke:#181818;stroke-width:1;"/><text fill="#000000" font-family="sans-serif" font-size="13" lengthAdjust="spacing" textLength="41.9453" x="116.52" y="495.5097">&#171;US1&#187;</text></g><!--link Researcher to UC_TI_auth--><g class="link" data-entity-1="Researcher" data-entity-2="UC_TI_auth" data-source-line="69" data-uid="lnk20" id="link_Researcher_UC_TI_auth"><path d="M48.74,587.9428 C54.54,516.1228 77.3,361.2428 166.52,275.4428 C192.61,250.3628 222.8964,237.1469 257.3364,228.6069" fill="none" id="Researcher-to-UC_TI_auth" style="stroke:#181818;stroke-width:1;"/><polygon fill="#181818" points="263.16,227.1628,253.4618,225.4465,258.307,228.3662,255.3873,233.2114,263.16,227.1628" style="stroke:#181818;stroke-width:1;"/><text fill="#000000" font-family="sans-serif" font-size="13" lengthAdjust="spacing" textLength="41.9453" x="116.52" y="286.5097">&#171;US3&#187;</text></g><!--link Researcher to UC_AC_request_data--><g class="link" data-entity-1="Researcher" data-entity-2="UC_AC_request_data" data-source-line="70" data-uid="lnk21" id="link_Researcher_UC_AC_request_data"><path d="M85.81,631.7928 C135.6,638.6228 217.0156,649.7777 281.3356,658.5977" fill="none" id="Researcher-to-UC_AC_request_data" style="stroke:#181818;stroke-width:1;"/><polygon fill="#181818" points="287.28,659.4128,278.9069,654.2272,282.3264,658.7336,277.82,662.1531,287.28,659.4128" style="stroke:#181818;stroke-width:1;"/><text fill="#000000" font-family="sans-serif" font-size="13" lengthAdjust="spacing" textLength="41.9453" x="116.52" y="632.5097">&#171;US3&#187;</text></g><!--link Researcher to UC_AC_request_TRE--><g class="link" data-entity-1="Researcher" data-entity-2="UC_AC_request_TRE" data-source-line="71" data-uid="lnk22" id="link_Researcher_UC_AC_request_TRE"><path d="M85.95,659.5428 C108.27,676.8028 137.5,696.8928 166.52,709.4428 C198.25,723.1628 228.8623,731.5074 261.9823,738.0074" fill="none" id="Researcher-to-UC_AC_request_TRE" style="stroke:#181818;stroke-width:1;"/><polygon fill="#181818" points="267.87,739.1628,259.8088,733.5045,262.9636,738.1999,258.2681,741.3547,267.87,739.1628" style="stroke:#181818;stroke-width:1;"/><text fill="#000000" font-family="sans-serif" font-size="13" lengthAdjust="spacing" textLength="41.9453" x="116.52" y="678.5097">&#171;US4&#187;</text></g><!--link Researcher to UC_AC_request_compute--><g class="link" data-entity-1="Researcher" data-entity-2="UC_AC_request_compute" data-source-line="72" data-uid="lnk23" id="link_Researcher_UC_AC_request_compute"><path d="M63.36,664.9428 C82.38,704.2328 117.39,763.8028 166.52,795.4428 C190.26,810.7328 212.5569,819.7184 240.1169,826.9584" fill="none" id="Researcher-to-UC_AC_request_compute" style="stroke:#181818;stroke-width:1;"/><polygon fill="#181818" points="245.92,828.4828,238.2317,822.3274,241.0841,827.2125,236.199,830.0649,245.92,828.4828" style="stroke:#181818;stroke-width:1;"/><text fill="#000000" font-family="sans-serif" font-size="13" lengthAdjust="spacing" textLength="41.9453" x="116.52" y="746.5097">&#171;US5&#187;</text></g><!--link Researcher to UC_DR_retrieve--><g class="link" data-entity-1="Researcher" data-entity-2="UC_DR_retrieve" data-source-line="73" data-uid="lnk24" id="link_Researcher_UC_DR_retrieve"><path d="M85.81,616.3528 C132.43,604.2928 206.1612,585.2355 268.9012,569.0055" fill="none" id="Researcher-to-UC_DR_retrieve" style="stroke:#181818;stroke-width:1;"/><polygon fill="#181818" points="274.71,567.5028,264.995,565.8843,269.8693,568.7551,266.9986,573.6294,274.71,567.5028" style="stroke:#181818;stroke-width:1;"/><text fill="#000000" font-family="sans-serif" font-size="13" lengthAdjust="spacing" textLength="41.9453" x="116.52" y="596.5097">&#171;US6&#187;</text></g><!--SRC=[hLHDRnen4BtxLumuD9TI5FNZa6nNIaW_8aMg1E6yCju1t1fxE_QIegh_lMFlRh8GcbGjA0Xb_DxCcvbdZqx4HXfToe1d85Lmv44IWZG6AaAFDhm4vOXG1RC5AzTOWhJyDLfwB7liIgflSed_pAyzAWuTXs_a78rXx9qEgtX4uBav7O_vhwh8LQIPjvkWXsf54BOoE9Us4JDCLVumDk-TYcdRmc65dVf8XOPwCXB2u290S41wkGfGwWZHpWgH-R0rc8ks7VWf02vvj9_8rROSE-C8FZkBsokyEuzdZaga9dubYN68LlmIsQXDnAMMo1CBhe9OLMJp_2Q5ij4y5nFkJf9QSUzVNKsS64v5LkSphZsE0cxYABDHdSFxfXTVELlwLZClXRkGC8l3c_8Wje8pDoM5KCRL9Go-hBNoq5LYcK72jLsGz85g5Mh20VSfJeR__H6YjI4CRgds0Lx0TSdRqs6RIdHJ7LpKl1kEAruMhqRR9IZ219N63w9BPkFYzhgG37oWtRWbku0xvdOtMh5H6kw2gPJshk_BtQVWGrqM9b85RqOyYiAhl5SDpY3By4VW2URviQUIPZ_1odaTbxKxb4joT_pBjkP_0xirIDRNTN8rAUO9KBG73yIF67Yl7O_74-MJbGRGRZGvk-QXzF8G1hvb6qpZE6w35ugtuc7iR21dTlkRuFSQsHIomR3EABdJTJ5cNGbGnF1pjFWSt4u-761pz2coSkkgPjVnJU8Bnz43ALfCJ_iKJNn5IlHyxyfzuJwTxkaUSnA3eLaejAbXuMZTOweMbBX5FEmykZSF63OktQsMpAgjCdM9xDOdQOzBxR6FveRq9CF3qzP_vOR3_A2RavRPz3JF3w3xLtCsVNqGiz_uNsBPBItqpNFGpZaD_Er1UEzsjRXtUVuR]--></g></svg>